/* XPM */
static char * bitcoin64_xpm[] = {
"64 64 507 2",
"  	c None",
". 	c #68B349",
"+ 	c #68B449",
"@ 	c #69B44A",
"# 	c #69B449",
"$ 	c #68B44A",
"% 	c #67B348",
"& 	c #69B349",
"* 	c #6AB44A",
"= 	c #6AB44B",
"- 	c #6AB34A",
"; 	c #67B349",
"> 	c #6AB349",
", 	c #6BB54B",
"' 	c #6BB54A",
") 	c #6CB54B",
"! 	c #6CB44B",
"~ 	c #6DB44B",
"{ 	c #6BB44B",
"] 	c #6DB54C",
"^ 	c #6EB54B",
"/ 	c #6EB54C",
"( 	c #6EB64C",
"_ 	c #6FB64C",
": 	c #6DB44C",
"< 	c #6BB44A",
"[ 	c #6CB34B",
"} 	c #5F7A44",
"| 	c #648B46",
"1 	c #6BA74A",
"2 	c #71BC4E",
"3 	c #70B74D",
"4 	c #70B64D",
"5 	c #70B64E",
"6 	c #71B64E",
"7 	c #70B54D",
"8 	c #6FB64D",
"9 	c #6FB54C",
"0 	c #69B34A",
"a 	c #67B249",
"b 	c #6EB74C",
"c 	c #5C6841",
"d 	c #513B3C",
"e 	c #513A3B",
"f 	c #50353A",
"g 	c #523D3C",
"h 	c #5C6341",
"i 	c #668847",
"j 	c #70AE4D",
"k 	c #74BC4F",
"l 	c #73B74F",
"m 	c #74B74F",
"n 	c #73B74E",
"o 	c #72B64F",
"p 	c #72B64E",
"q 	c #71B74E",
"r 	c #71B64D",
"s 	c #52403C",
"t 	c #523C3C",
"u 	c #51393B",
"v 	c #4F333A",
"w 	c #564C3E",
"x 	c #74B34F",
"y 	c #75B750",
"z 	c #75B850",
"A 	c #75B84F",
"B 	c #74B84F",
"C 	c #71B74D",
"D 	c #66A947",
"E 	c #6AB449",
"F 	c #6CB44C",
"G 	c #6CA24A",
"H 	c #50363B",
"I 	c #523B3B",
"J 	c #709F4D",
"K 	c #78B951",
"L 	c #78B850",
"M 	c #77B851",
"N 	c #77B850",
"O 	c #76B750",
"P 	c #75B74F",
"Q 	c #73B64E",
"R 	c #72B74E",
"S 	c #6FB54D",
"T 	c #6DB54B",
"U 	c #66AA47",
"V 	c #647F45",
"W 	c #513B3B",
"X 	c #7ABA52",
"Y 	c #7BBA52",
"Z 	c #7BB953",
"` 	c #7BB952",
" .	c #7AB952",
"..	c #79B952",
"+.	c #79B951",
"@.	c #76B850",
"#.	c #65A647",
"$.	c #75BB50",
"%.	c #59543F",
"&.	c #7DBA54",
"*.	c #7DBA53",
"=.	c #7CBA53",
"-.	c #78B851",
";.	c #74BB4F",
">.	c #73BA4E",
",.	c #639C46",
"'.	c #76B950",
").	c #4F343A",
"!.	c #80BB55",
"~.	c #7FBB55",
"{.	c #7EBB54",
"].	c #7AB951",
"^.	c #73AB4E",
"/.	c #58513F",
"(.	c #5A5B41",
"_.	c #648045",
":.	c #6B9E4A",
"<.	c #71BB4E",
"[.	c #6FB84D",
"}.	c #69B54A",
"|.	c #5F8443",
"1.	c #6C934A",
"2.	c #82BC56",
"3.	c #83BC56",
"4.	c #81BB56",
"5.	c #81BC56",
"6.	c #7EBA54",
"7.	c #7BBC53",
"8.	c #5E6142",
"9.	c #513C3B",
"0.	c #50363A",
"a.	c #50383B",
"b.	c #595E40",
"c.	c #638645",
"d.	c #6BAD4A",
"e.	c #69B649",
"f.	c #585F3F",
"g.	c #79BA51",
"h.	c #626E44",
"i.	c #84BC58",
"j.	c #85BD58",
"k.	c #85BD57",
"l.	c #85BC57",
"m.	c #84BD57",
"n.	c #83BC57",
"o.	c #82BB56",
"p.	c #7FBB54",
"q.	c #7DBC54",
"r.	c #4F363A",
"s.	c #4F313A",
"t.	c #68A149",
"u.	c #66AB48",
"v.	c #7DBF54",
"w.	c #54423C",
"x.	c #87BD59",
"y.	c #88BD59",
"z.	c #88BE59",
"A.	c #87BE59",
"B.	c #86BE59",
"C.	c #86BD58",
"D.	c #81BB55",
"E.	c #71954D",
"F.	c #69A449",
"G.	c #5F8343",
"H.	c #79B852",
"I.	c #7ABA53",
"J.	c #77AA50",
"K.	c #4F353A",
"L.	c #8ABE5A",
"M.	c #8ABF5A",
"N.	c #8BBE5A",
"O.	c #89BE5A",
"P.	c #88BE58",
"Q.	c #83BE57",
"R.	c #606143",
"S.	c #69B64A",
"T.	c #53473D",
"U.	c #6B8249",
"V.	c #8DC05B",
"W.	c #8DC05C",
"X.	c #8DBF5B",
"Y.	c #8CBF5B",
"Z.	c #8BBF5B",
"`.	c #89BE59",
" +	c #608C44",
".+	c #80BF55",
"++	c #5A5440",
"@+	c #8FC05D",
"#+	c #90C15D",
"$+	c #8FC15D",
"%+	c #8EC05C",
"&+	c #8EBF5C",
"*+	c #89BF5A",
"=+	c #74904E",
"-+	c #70B54C",
";+	c #69B84A",
">+	c #53453C",
",+	c #74B94F",
"'+	c #7CB952",
")+	c #7EBB53",
"!+	c #80BA55",
"~+	c #92C15E",
"{+	c #92C25E",
"]+	c #91C15E",
"^+	c #8EC05D",
"/+	c #8CC25B",
"(+	c #5E5842",
"_+	c #5E7E42",
":+	c #72B94E",
"<+	c #5F6A43",
"[+	c #657E46",
"}+	c #71A24D",
"|+	c #7FBD54",
"1+	c #71904D",
"2+	c #93C15E",
"3+	c #94C25F",
"4+	c #95C260",
"5+	c #94C160",
"6+	c #93C15F",
"7+	c #90C05D",
"8+	c #8BBA5A",
"9+	c #4E343A",
"0+	c #67B048",
"a+	c #4F323A",
"b+	c #6CB54A",
"c+	c #617344",
"d+	c #50393B",
"e+	c #5F6143",
"f+	c #6E894B",
"g+	c #626544",
"h+	c #96C260",
"i+	c #97C261",
"j+	c #97C361",
"k+	c #98C361",
"l+	c #96C261",
"m+	c #95C360",
"n+	c #91C15D",
"o+	c #768A4F",
"p+	c #6AB74A",
"q+	c #575C3F",
"r+	c #6CA04A",
"s+	c #523B3C",
"t+	c #99C461",
"u+	c #99C362",
"v+	c #93C25F",
"w+	c #95C65F",
"x+	c #5B5141",
"y+	c #5E8143",
"z+	c #607144",
"A+	c #9AC362",
"B+	c #9BC463",
"C+	c #9CC563",
"D+	c #9BC563",
"E+	c #9AC462",
"F+	c #98C461",
"G+	c #8FB85C",
"H+	c #4E3339",
"I+	c #79B851",
"J+	c #66A748",
"K+	c #50343A",
"L+	c #73B44E",
"M+	c #658046",
"N+	c #9CC463",
"O+	c #9FC865",
"P+	c #A0C966",
"Q+	c #9EC665",
"R+	c #9EC564",
"S+	c #9DC463",
"T+	c #778550",
"U+	c #69B94A",
"V+	c #7CB953",
"W+	c #7EBA53",
"X+	c #4E363A",
"Y+	c #625944",
"Z+	c #7A8451",
"`+	c #8CA35B",
" @	c #A0C665",
".@	c #A2CB66",
"+@	c #9FC765",
"@@	c #9CC963",
"#@	c #5C4F41",
"$@	c #56573E",
"%@	c #78BA51",
"&@	c #7ABB52",
"*@	c #7EBB55",
"=@	c #4F3639",
"-@	c #4C3239",
";@	c #5C4E41",
">@	c #6F724B",
",@	c #859856",
"'@	c #94B65F",
")@	c #99C161",
"!@	c #4D3439",
"~@	c #7DBB54",
"{@	c #5B6F41",
"]@	c #70A44C",
"^@	c #5E6643",
"/@	c #606944",
"(@	c #75A24F",
"_@	c #82C156",
":@	c #75964F",
"<@	c #4F383B",
"[@	c #4C3339",
"}@	c #5E7B43",
"|@	c #6EB64D",
"1@	c #72B34E",
"2@	c #50373A",
"3@	c #5F5F43",
"4@	c #5C5741",
"5@	c #5F8444",
"6@	c #72BA4E",
"7@	c #595940",
"8@	c #A2C766",
"9@	c #A4C767",
"0@	c #A5C767",
"a@	c #7CBB53",
"b@	c #608B44",
"c@	c #6B9F4A",
"d@	c #4E303A",
"e@	c #A2C667",
"f@	c #A4C768",
"g@	c #A6C768",
"h@	c #A7C869",
"i@	c #A8C96A",
"j@	c #A7C969",
"k@	c #698148",
"l@	c #7BBC52",
"m@	c #618C44",
"n@	c #71B84D",
"o@	c #71A84D",
"p@	c #77B650",
"q@	c #A0C666",
"r@	c #A2C867",
"s@	c #A6CA69",
"t@	c #A6C869",
"u@	c #A8C869",
"v@	c #A5C868",
"w@	c #A3C767",
"x@	c #A1C666",
"y@	c #709C4D",
"z@	c #608844",
"A@	c #696548",
"B@	c #879658",
"C@	c #A4C568",
"D@	c #A9CC6A",
"E@	c #A6C868",
"F@	c #A3C768",
"G@	c #A3C666",
"H@	c #A2C966",
"I@	c #76B64F",
"J@	c #81BE56",
"K@	c #4C3238",
"L@	c #635A45",
"M@	c #849056",
"N@	c #9EBD64",
"O@	c #A6CC68",
"P@	c #A2C767",
"Q@	c #93AE5E",
"R@	c #513C3C",
"S@	c #5D7842",
"T@	c #73B64F",
"U@	c #77A550",
"V@	c #4B3038",
"W@	c #5E5142",
"X@	c #798150",
"Y@	c #71744C",
"Z@	c #72B14D",
"`@	c #596640",
" #	c #523C3B",
".#	c #6B854A",
"+#	c #9AC363",
"@#	c #76B74F",
"##	c #71B54D",
"$#	c #6AB94A",
"%#	c #54493D",
"&#	c #7CBD53",
"*#	c #5D5E42",
"=#	c #9CC464",
"-#	c #9DC563",
";#	c #69B549",
">#	c #50353B",
",#	c #7DC054",
"'#	c #523D3B",
")#	c #9DC464",
"!#	c #9DC564",
"~#	c #7FBF55",
"{#	c #639846",
"]#	c #51383B",
"^#	c #77B951",
"/#	c #74A84E",
"(#	c #94C15F",
"_#	c #96C360",
":#	c #98C362",
"<#	c #574D3F",
"[#	c #647646",
"}#	c #6F994C",
"|#	c #77BB51",
"1#	c #5C7341",
"2#	c #6A8C49",
"3#	c #99C462",
"4#	c #98C462",
"5#	c #99C662",
"6#	c #58533F",
"7#	c #658646",
"8#	c #6FB74D",
"9#	c #53443C",
"0#	c #606B43",
"a#	c #94BF5F",
"b#	c #6A9849",
"c#	c #649E47",
"d#	c #51373B",
"e#	c #76BC50",
"f#	c #56493D",
"g#	c #94C260",
"h#	c #809B55",
"i#	c #6AB54A",
"j#	c #5A6640",
"k#	c #90C05E",
"l#	c #6D754A",
"m#	c #68AE49",
"n#	c #6A9B49",
"o#	c #8BBF5A",
"p#	c #8FC05C",
"q#	c #91C55E",
"r#	c #5A4F40",
"s#	c #5B6D41",
"t#	c #638346",
"u#	c #8BBE5B",
"v#	c #4D3339",
"w#	c #7DB953",
"x#	c #7BBA53",
"y#	c #67A948",
"z#	c #6A9F49",
"A#	c #83BD57",
"B#	c #7A9C51",
"C#	c #513A3A",
"D#	c #57563E",
"E#	c #6BA14A",
"F#	c #86BE58",
"G#	c #87BE58",
"H#	c #6C7D4A",
"I#	c #69AF49",
"J#	c #6CB44A",
"K#	c #74B850",
"L#	c #81BC55",
"M#	c #84BC57",
"N#	c #86C159",
"O#	c #5B5340",
"P#	c #69B149",
"Q#	c #74B74E",
"R#	c #77B750",
"S#	c #80BC55",
"T#	c #83BF57",
"U#	c #76B851",
"V#	c #53463D",
"W#	c #6AB14A",
"X#	c #7FBA55",
"Y#	c #749C4E",
"Z#	c #50373B",
"`#	c #6AB64A",
" $	c #56533E",
".$	c #6A8549",
"+$	c #6AB649",
"@$	c #57583E",
"#$	c #69AD49",
"$$	c #78B351",
"%$	c #55473D",
"&$	c #56543E",
"*$	c #66A348",
"=$	c #6BB64B",
"-$	c #79BC51",
";$	c #68AB48",
">$	c #54483D",
",$	c #608544",
"'$	c #6BB74B",
")$	c #6AB84A",
"!$	c #628F45",
"~$	c #67A348",
"{$	c #58603F",
"]$	c #5B6C41",
"^$	c #68AB49",
"/$	c #70B64C",
"($	c #4F303A",
"_$	c #5A6740",
":$	c #669F47",
"<$	c #6CBA4B",
"[$	c #6CB84A",
"}$	c #67AA48",
"|$	c #5C7342",
"1$	c #5D7642",
"2$	c #66A148",
"3$	c #6BB94B",
"4$	c #6BB84B",
"5$	c #68A848",
"6$	c #608143",
"7$	c #57553E",
"8$	c #575B3F",
"9$	c #5C7242",
"0$	c #608344",
"a$	c #639546",
"b$	c #66A047",
"c$	c #67A548",
"d$	c #67A648",
"e$	c #659846",
"f$	c #618844",
"g$	c #596240",
"h$	c #523E3C",
"                                                                                                                                ",
"                                                                                                                                ",
"                                                                                                                                ",
"                                                    . + + + @ # # $ + + . . %                                                   ",
"                                            + . # & & * * * = = = * * * - & & @ . ;                                             ",
"                                        . # > * * , ' ) ! ! ~ ! ~ ~ ! ! ) ) { * - & + .                                         ",
"                                    . & - { ! ! ! ] ^ / ( _ ( _ ( ( _ ( ] ^ : ! ) { < - @ ;                                     ",
"                                . & * < ) [ } | 1 2 3 4 4 5 6 6 6 6 5 4 7 7 8 9 ] ] ! ' * > 0 a                                 ",
"                              + - { ) ~ b c d e f g h i j k l m m l n o p q r 4 7 8 / : ) { - & .                               ",
"                            # - < ! ] ( 2 s t         u v w x y y y z A B m l p C r 7 _ ] : ) * - # D                           ",
"                          E * ) F / 9 4 G H I               J K K K L M N O P A l Q R r S _ T ) < - # U                         ",
"                        & * ) ] _ 9 5 n V W                 X Y Z `  . ...+.K N @.z n Q p r 8 / ! { * @ #.                      ",
"                      & < ! ^ ( 7 R R $.%.W                 &.&.&.*.*.=.Z Y  ...-.M @.P ;.>.6 7 / ! ) * @ ,.                    ",
"                    # < ! / S 4 R l A '.).t                 !.~.~.!.~.~.{.&.=.=.X ].-.^./.(._.:.<.[.: ' * }.|.                  ",
"                  # < ) T S 4 Q l y @.1.u t                 2.2.3.2.2.4.5.!.~.6.&.Z 7.8.t 9.e 0.a.b.c.d.' - e.f.                ",
"                & - , / ( 4 Q m O K g.h.t                 i.j.j.k.j.l.m.n.3.o.!.p.{.q.r.t           u s.t.* & u.                ",
"                > { T ( 4 p m O N +.v.w.W                 x.y.z.y.x.A.B.C.k.m.n.D.!.E.u I               F.) * @ G.              ",
"              # { ! / 4 R n y L H.I.J.K.I                 L.M.N.M.M.M.O.z.P.C.j.m.Q.R.t                 _ T ) - S.T.            ",
"              - ) T S 6 l P N -.X *.U.W                   V.W.W.W.X.Y.Z.Z.M.`.x.C.l.K.I                 7 / ~ { &  +            ",
"            & , ! _ 4 p m @.-. .*..+++I                   @+#+#+#+$+@+%+&+Y.Y.*+`.=+u W                 6 -+T ) * ;+>+          ",
"            - ) ] -+R ,+O K  .'+)+!+K.t                   ~+~+{+{+~+]+]+#+^+&+Y./+(+t                 m Q 4 ( ~ { * _+          ",
"          & = ~ _ r :+<+[+}+v.|+~.1+u I                 2+3+4+4+4+5+3+6+~+]+7+%+8+9+t                 P m q -+] , - 0+a+        ",
"          & b+/ 9 :+c+W W r.d+e+f+g+I                   h+i+j+k+j+j+l+m+4+2+~+n+o+e I                 N A p 4 9 ~ * p+q+        ",
"          * ) / 4 r+f s+        u d+t                   k+t+u+u+u+u+t+j+i+h+v+w+x+I                   K y l r _ ] ' # y+e       ",
"        & { ~ 8 C z+W t                                 A+B+C+C+C+D+B+E+F+k+m+G+H+t                   I+@.m q 4 / ) - J+K+      ",
"        0 ' ] -+q L+M+                                  N+O+P+Q+R+R+S+C+B+E+k+T+W t                 '+ .M y p 4 ( ~ * U+e       ",
"        > , / 7 R m N +.V+W+                              X+Y+Z+`+ @.@+@N+B+@@#@t                   *. .K y l r _ : { p+$@      ",
"        - ) / r p z %@&@=.*@4.n.                              W =@-@;@>@,@'@)@!@I                   ~@` -.@.l q 9 ] , }.{@t     ",
"        * ~ _ 5 n ]@^@/@(@_@Q.:@a.                                    t <@[@d+W t                   {.Z +.N m R S / ' # }@W     ",
"        < ! |@r 1@9.t t K.2@3@4@t                                                                 4.{.V+..M m p 7 ] ) - 5@e     ",
"        { : 8 6@7@t W         I t                     8@9@0@                                      5.~.a@ .M B R 4 / ) - b@u     ",
"        < : 8 c@d@H                                  @e@f@g@h@i@j@g@                                  k@l@M A R 7 / ) - m@u     ",
"        < : 8 n@,+o@p@                              q@r@s@g@t@u@j@t@v@w@x@                              y@M B p 4 / ) - z@e     ",
"        { ! 8 6 m O K X *.~.                            A@B@C@D@t@E@F@G@H@                                I@m Q 4 / , - y+W     ",
"        * ~ ( 6 l P -.X &.J@                              a.K@L@M@N@O@P@Q@X+R@                              m p 7 ] b+* S@W     ",
"        * ! _ 4 T@z L  .&.U@0.W                                 d+V@W@X@Y@d                     n.!.        Z@R S T , }.`@ #    ",
"        - ) / 4 p B M  .=..#W                     +#                    d+I                     o.!.&.Y -.@#  ##S ] { $#%#s+    ",
"        - ) / S R m @.I+&#*#t                     u+B+=#-#                                      2.p.=. .K A T@r _ ! { ;#>#R@    ",
"          ' ] 9 q n O K ,#'#I                     j+A+B+D+)#!#)#                                D.~#=...N A p 4 / ) * {#]#I     ",
"          * ! _ r Q A ^#/#K.t                   (#_#k+:#A+E+B+B+B+B+A+                            <#[#}#|#$.R S / ) * 1#W       ",
"          * ! / 4 R m @.2#u                     ~+3+h+h+k+:#t+3#t+4#5#                              s+2@0.6#7#8#] , $#9#t       ",
"          & b+T 7 6 n '.0#t                     ]+~+v+4+m+_#i+h+l+i+a#K@W                                 b#n@/ ~ * c#d#I       ",
"            < ! / 4 R e#f#s+                    %+#+]+~+v+6+3+g#3+3+h#a.t                             A l r _ ] ) i#j#t         ",
"            - ! ^ 8 6 ,+).t                   N.Y.&+^+$+k#]+]+~+~+{+l#I                     p.*.Y -.@.m R 4 / ~ < m#f R@        ",
"              = ! / 7 n#d#I                   z.M.o#Y.W.&+%+@+@+p#q#r#W                     &.Y H.M A n r 8 T ) i#s#W t         ",
"              - ' ] |@t#W                     C.y.O.M.u#Z.Y.Y.V.Y.V.v#t                   w#x#..M y m q S / ! * y#>#t           ",
"                - ) ] z#v                   3.A#j.C.A.z.`.O.M.L.M.B#a.C#                  Y  .N @.m R r _ ] ' $#D#t t           ",
"                  ' ~ _ E#                  !.4.3.m.l.j.F#B.G#A.G#H#W                     +.K @.P Q r _ ] , * z@]#t             ",
"                  I#J#! ( 4 q n K#          {.p.L#4.2.3.A#m.M#k.N#O#9.                    ^#@.P p 6 -+/ ) < y#]#t               ",
"                    P#b+] ( 4 q Q#z R#M -.Y Z &.{.~.!.S#4.4.2.o.T#r.t                   U#O m Q 6 7 / ! { & V#t t               ",
"                      W#) : _ 4 q n m @.M -. .` x#=.&.6.{.X#~.~.Y#Z#W                   m m R 4 -+/ ~ < `# $t R@                ",
"                        W#' ] _ S r Q l z @.M K H. .x#Z V+=.=.&..$W                     l q r _ ] ! < +$@$W R@                  ",
"                          #$, ~ / 7 r C n l B O N K K +...+. . .$$%$                  p r 4 ( / ) < * &$W t                     ",
"                            *$=$~ / ( 4 4 R Q m m y O @.N M M M N -$O @.              7 8 / ] ) < ;$>$t t                       ",
"                              ,$'$! ] ] ( -+4 q R l l m B A z z z A m m l l p R     8 ( ^ ) < )$!$u t I                         ",
"                                &$~$'$) ] / _ 7 4 4 q R R Q Q o o p R R C 6 4 7 8 ( ] ~ ) i#m#{$Z#t I                           ",
"                                    ]$^$=$! ~ ] / ( 8 7 7 4 4 r 4 /$4 S 9 ( ( / T ! b+, * S@]#t I                               ",
"                                      ($_$:$<$) ) ~ ~ ] ] / / ( / / / ] T ~ ! ) < [$}$|$e W R@W                                 ",
"                                          v %#1$2$3$4$) ! ) ) ! ) ) ) < , =$<$5$6$7$K+W s+t                                     ",
"                                                f ]#8$9$0$a$b$c$d$2$e$f$1$g$h$>#W t t R@                                        ",
"                                                      s+e ]#d#H >#Z#]#e s+R@W I                                                 ",
"                                                                                                                                ",
"                                                                                                                                ",
"                                                                                                                                "};
