/* XPM */
static char * bitcoin32_xpm[] = {
"32 32 258 2",
"  	c None",
". 	c #68B349",
"+ 	c #69B349",
"@ 	c #69B44A",
"# 	c #6AB44A",
"$ 	c #6BB44A",
"% 	c #6BB54B",
"& 	c #6BB44B",
"* 	c #69B34A",
"= 	c #6CB64B",
"- 	c #679E48",
"; 	c #6EB74C",
"> 	c #70BA4D",
", 	c #70B64D",
"' 	c #6EB64D",
") 	c #6EB54C",
"! 	c #6CB54B",
"~ 	c #6DB54C",
"{ 	c #648B46",
"] 	c #50333A",
"^ 	c #4F303A",
"/ 	c #5A5B40",
"( 	c #637D45",
"_ 	c #75B84F",
": 	c #74B74F",
"< 	c #73B74F",
"[ 	c #72B64E",
"} 	c #6FB54D",
"| 	c #6DB54B",
"1 	c #68B249",
"2 	c #6CB44B",
"3 	c #71B94D",
"4 	c #5C6341",
"5 	c #78B451",
"6 	c #79B952",
"7 	c #78B851",
"8 	c #76B850",
"9 	c #75B750",
"0 	c #72B74E",
"a 	c #6EB54B",
"b 	c #6FB64C",
"c 	c #76BD50",
"d 	c #513B3B",
"e 	c #7EBB55",
"f 	c #7FBB54",
"g 	c #7EBB54",
"h 	c #7DBA54",
"i 	c #7BB953",
"j 	c #79B951",
"k 	c #77B751",
"l 	c #678A48",
"m 	c #6DA54B",
"n 	c #70BB4D",
"o 	c #68B049",
"p 	c #6FB64D",
"q 	c #72B74F",
"r 	c #76B84F",
"s 	c #71A14D",
"t 	c #50363B",
"u 	c #84BD57",
"v 	c #83BC57",
"w 	c #81BC56",
"x 	c #80BB55",
"y 	c #6A8749",
"z 	c #50373B",
"A 	c #523F3C",
"B 	c #5C6B42",
"C 	c #6AB24A",
"D 	c #66A648",
"E 	c #677A47",
"F 	c #89BE5A",
"G 	c #88BE59",
"H 	c #86BE59",
"I 	c #85BD58",
"J 	c #83C057",
"K 	c #5B5741",
"L 	c #6DB24B",
"M 	c #6AB54A",
"N 	c #5E7F43",
"O 	c #71B64D",
"P 	c #74B750",
"Q 	c #7EBF55",
"R 	c #594F3F",
"S 	c #8EC05C",
"T 	c #8FC05D",
"U 	c #8CBF5B",
"V 	c #89BE59",
"W 	c #84B757",
"X 	c #4E333A",
"Y 	c #68AD49",
"Z 	c #6FA84C",
"` 	c #72A74D",
" .	c #7DC054",
"..	c #7EB654",
"+.	c #93C25F",
"@.	c #94C15F",
"#.	c #93C15F",
"$.	c #90C15E",
"%.	c #72854D",
"&.	c #513A3B",
"*.	c #6BB64A",
"=.	c #5B7041",
"-.	c #53413C",
";.	c #5D5B42",
">.	c #98C361",
",.	c #99C362",
"'.	c #97C361",
").	c #95C25F",
"!.	c #94C760",
"~.	c #5B5040",
"{.	c #77B851",
"].	c #629446",
"^.	c #6EA74C",
"/.	c #5A5640",
"(.	c #9DC664",
"_.	c #A0CA66",
":.	c #9DC665",
"<.	c #9BC463",
"[.	c #99C461",
"}.	c #8FB65D",
"|.	c #4D3339",
"1.	c #7AB952",
"2.	c #71B64E",
"3.	c #6AB64A",
"4.	c #74B84F",
"5.	c #7AC052",
"6.	c #7DBB54",
"7.	c #615643",
"8.	c #74784D",
"9.	c #849757",
"0.	c #96BA60",
"a.	c #7A8751",
"b.	c #7CBA53",
"c.	c #6BB84A",
"d.	c #55503D",
"e.	c #6B974A",
"f.	c #564B3E",
"g.	c #677947",
"h.	c #6E874B",
"i.	c #4F363A",
"j.	c #50383A",
"k.	c #78B951",
"l.	c #6EB64C",
"m.	c #6BB74B",
"n.	c #585C3F",
"o.	c #70B54D",
"p.	c #4F343A",
"q.	c #A1C666",
"r.	c #A5C768",
"s.	c #A7C869",
"t.	c #75A24F",
"u.	c #79BB52",
"v.	c #6BB64B",
"w.	c #59613F",
"x.	c #71B74D",
"y.	c #7ABA51",
"z.	c #90A45C",
"A.	c #AACD6A",
"B.	c #A8CA69",
"C.	c #A4C767",
"D.	c #95B260",
"E.	c #74AD4F",
"F.	c #6CB74B",
"G.	c #585D3F",
"H.	c #7EB954",
"I.	c #4D3139",
"J.	c #73744D",
"K.	c #8B9F5A",
"L.	c #686347",
"M.	c #6FB54C",
"N.	c #6BB84B",
"O.	c #56523E",
"P.	c #729A4D",
"Q.	c #9CC563",
"R.	c #81BB56",
"S.	c #77B850",
"T.	c #6CBA4B",
"U.	c #51393B",
"V.	c #77B950",
"W.	c #657847",
"X.	c #96C360",
"Y.	c #99C462",
"Z.	c #72964E",
"`.	c #73A34E",
" +	c #77BE51",
".+	c #71B74E",
"++	c #65A148",
"@+	c #50353B",
"#+	c #76BB50",
"$+	c #5A5840",
"%+	c #92C15E",
"&+	c #95C260",
"*+	c #7D8F52",
"=+	c #58553F",
"-+	c #6DAC4B",
";+	c #5D7742",
">+	c #75BD4F",
",+	c #50383B",
"'+	c #90C15D",
")+	c #92C15F",
"!+	c #94C560",
"~+	c #625E45",
"{+	c #7EBA54",
"]+	c #75B850",
"^+	c #73B84E",
"/+	c #6CA54B",
"(+	c #87BD59",
"_+	c #89BF5A",
":+	c #8BBF5B",
"<+	c #8DC05C",
"[+	c #90C65D",
"}+	c #73B74E",
"|+	c #5F8344",
"1+	c #6DB34C",
"2+	c #5D6C42",
"3+	c #82BC56",
"4+	c #85BD57",
"5+	c #87BD58",
"6+	c #80AA54",
"7+	c #78B850",
"8+	c #69B049",
"9+	c #7FBB55",
"0+	c #82BC57",
"a+	c #6E854B",
"b+	c #57563E",
"c+	c #523C3B",
"d+	c #6EB54D",
"e+	c #72B64D",
"f+	c #7DBA53",
"g+	c #7EBA53",
"h+	c #7FBE55",
"i+	c #5E6042",
"j+	c #6CB94B",
"k+	c #5A6640",
"l+	c #6BB24A",
"m+	c #709F4D",
"n+	c #59623F",
"o+	c #67A148",
"p+	c #6DB84B",
"q+	c #67A448",
"r+	c #544A3D",
"s+	c #5C7042",
"t+	c #669F48",
"u+	c #6DBA4C",
"v+	c #67A648",
"w+	c #5A6840",
"x+	c #55503E",
"y+	c #5E7643",
"z+	c #639146",
"A+	c #67A348",
"B+	c #6AAF4A",
"C+	c #68A649",
"D+	c #649546",
"E+	c #5E7843",
"F+	c #554F3E",
"G+	c #50343B",
"H+	c #4F313A",
"I+	c #50333B",
"                                                                ",
"                            . + + .                             ",
"                      @ # $ % % % & $ # * .                     ",
"                  @ = - ; > , , , , ' ) ! $ + .                 ",
"              * $ ~ { ] ^ / ( _ _ : < [ , } | # 1               ",
"            @ 2 ) 3 4         5 6 6 7 8 9 0 , a & 1             ",
"          @ ! b [ c d         e f g h i j k l m n = o           ",
"        * 2 p q r s t         u u v w x g y z   A B C D         ",
"        $ ) 0 _ 6 E           F F G H I J K         L M N       ",
"      # | O P 6 Q R         S T T S U V W X         , ! Y       ",
"      $ b Z `  ...X         +.@.+.#.$.S %.&.        0 ) *.=.    ",
"    * ~ O -.  -.;.&.        >.,.,.'.).!.~.        {.: , 2 ].    ",
"    # ) ^./.                (._.:.<.[.}.|.        1.8 2.~ 3.    ",
"    & p 4.5.6.v               7.8.9.0.a.          b.{.0 ) c.d.  ",
"    & , e.f.g.h.i.                    j.          h k.: l.m.n.  ",
"    2 o.p.                q.r.s.                  t.u.< o.v.w.  ",
"    2 x.4.y.                z.A.B.C.D.              E.: p F.G.  ",
"    & , : j H.I.              d J.K.L.                [ M.N.O.  ",
"    $ p : k.P.t           Q.                    R.b.S.[ ) T.U.  ",
"    # ) 0 V.W.          X.Y.<.Q.<.              Z.`. +.+| ++@+  ",
"      | , #+$+          %+&+'.>.>.*+                =+-+! ;+    ",
"      $ } >+,+          S '+)++.!+~+          {+1.]+^+) c.A     ",
"        | /+@+        (+_+:+<+S [+j.          b.S.}+p 2 |+U.    ",
"        & 1+2+        3+4+5+G F 6+p.          7+: O | 8+d       ",
"          $ p [ :     g 9+3+0+v a+          S.: 2.) N.b+c+      ",
"            2 d+e+: {.6 i f+g+h+i+          }+2.) j+k+&.        ",
"              l+) , 0 : 8 7 k.6 m+          , | m.n+U.          ",
"                o+p+M., 2.< : : : : }+2.p ) = q+r+d             ",
"                  s+t+u+l.M.} , , } ) ) u+v+w+t                 ",
"                      x+y+z+A+B+B+C+D+E+F+G+                    ",
"                              H+H+I+t                           ",
"                                                                "};
