/* XPM */
static char * bitcoin16_xpm[] = {
"16 16 102 2",
"  	c None",
". 	c #6AB04A",
"+ 	c #6EB84C",
"@ 	c #6EB74D",
"# 	c #6DB54C",
"$ 	c #6CB54B",
"% 	c #6AB44A",
"& 	c #6FB94C",
"* 	c #595840",
"= 	c #6E9D4B",
"- 	c #77B951",
"; 	c #75B850",
"> 	c #71B74E",
", 	c #6EB74C",
"' 	c #69B249",
") 	c #6FB54D",
"! 	c #75B750",
"~ 	c #82BE56",
"{ 	c #81BC56",
"] 	c #7FBB55",
"^ 	c #77B051",
"/ 	c #5E6D43",
"( 	c #658F47",
"_ 	c #67AA48",
": 	c #6EB64C",
"< 	c #6E914B",
"[ 	c #8CBF5B",
"} 	c #8CC05B",
"| 	c #88BE59",
"1 	c #6D824A",
"2 	c #6DB64C",
"3 	c #6BB54A",
"4 	c #699549",
"5 	c #698648",
"6 	c #616544",
"7 	c #96C360",
"8 	c #96C361",
"9 	c #94C65F",
"0 	c #5D5642",
"a 	c #72B64E",
"b 	c #669E47",
"c 	c #6DB54B",
"d 	c #70A54D",
"e 	c #89A15A",
"f 	c #8DA85B",
"g 	c #90B25D",
"h 	c #74B84F",
"i 	c #6CB84B",
"j 	c #6EB84D",
"k 	c #564C3E",
"l 	c #677347",
"m 	c #7CB253",
"n 	c #76B950",
"o 	c #6EB94C",
"p 	c #6EB54C",
"q 	c #78BC51",
"r 	c #73994E",
"s 	c #859257",
"t 	c #96AF60",
"u 	c #70724C",
"v 	c #73B44F",
"w 	c #6EBA4D",
"x 	c #77BB50",
"y 	c #606844",
"z 	c #99C362",
"A 	c #A0CB66",
"B 	c #79AE51",
"C 	c #75BA4F",
"D 	c #6CB44B",
"E 	c #74BD4F",
"F 	c #92C15E",
"G 	c #849F57",
"H 	c #6BA04A",
"I 	c #628A45",
"J 	c #6DB14B",
"K 	c #88BE5A",
"L 	c #8BC05B",
"M 	c #6E7C4A",
"N 	c #7BB952",
"O 	c #6DB94C",
"P 	c #554D3D",
"Q 	c #6FB74D",
"R 	c #74B74F",
"S 	c #7ABA52",
"T 	c #7EBB54",
"U 	c #82C056",
"V 	c #5D5841",
"W 	c #6FBA4C",
"X 	c #5B6C41",
"Y 	c #6DB24B",
"Z 	c #72B74E",
"` 	c #74B850",
" .	c #77B950",
"..	c #73B04F",
"+.	c #5A6741",
"@.	c #628D46",
"#.	c #679E48",
"$.	c #6CB14B",
"%.	c #6CB24B",
"&.	c #68A048",
"*.	c #5F7C44",
"=.	c #52423C",
"                                ",
"          . + @ # $ %           ",
"      % & *   = - ; > , '       ",
"    % ) !     ~ { ] ^ / ( _     ",
"    : ; <     [ } | 1     2     ",
"  3 4 5 6     7 8 9 0     a b   ",
"  c d         e f g       h i   ",
"  j k l                 m n o   ",
"  p q r       s t u       v w   ",
"  c x y     z A         B C D   ",
"  D E       F 7 G         H I   ",
"    J       K L M     N h O P   ",
"      Q R S T U V     R W X     ",
"        Y Z `  ...    : +.      ",
"          @.#.$.%.&.*.=.        ",
"                                "};
